<svg xmlns="http://www.w3.org/2000/svg" viewBox="0 0 300 233" width="300" height="233" preserveAspectRatio="xMidYMid meet">
  <g transform="translate(0,233) scale(0.1,-0.1)" fill="#6200ea" stroke="none">
    <path d="M1595 2079 c-163 -23 -394 -125 -496 -217 -108 -98 -135 -200 -84 -311 18 -38 63 -92 161 -191 l135 -137 -53 -28 c-149 -78 -254 -167 -287 -246 -18 -41 -20 -55 -11 -88 31 -116 214 -173 385 -120 194 60 222 245 63 423 l-48 54 118 42 c64 23 188 63 275 89 158 48 207 69 132 58 -53 -9 -392 -112 -469 -143 -33 -13 -65 -24 -71 -24 -20 0 -250 242 -281 295 -41 72 -41 152 1 221 59 94 211 193 396 255 124 42 276 52 326 20 61 -38 49 -129 -23 -167 -18 -10 -34 -22 -34 -26 0 -30 71 1 102 45 31 44 31 117 -1 151 -40 43 -131 60 -236 45z m-213 -936 c111 -142 124 -240 43 -311 -82 -73 -249 -95 -352 -48 -111 52 -111 152 0 252 45 40 239 164 257 164 4 0 27 -26 52 -57z"/>
    <path d="M380 589 c-43 -17 -70 -50 -70 -84 0 -41 12 -55 93 -105 68 -43 84 -69 55 -98 -19 -19 -87 -14 -118 8 l-29 20 -6 -21 c-10 -31 8 -42 75 -47 57 -4 61 -3 95 31 60 60 43 103 -67 165 -61 35 -73 53 -58 83 13 23 75 26 104 4 22 -17 36 -11 36 15 0 13 -11 22 -37 29 -44 13 -41 13 -73 0z"/>
    <path d="M1160 588 c-84 -23 -135 -119 -111 -207 23 -85 81 -126 171 -119 103 7 156 71 148 177 -8 113 -101 179 -208 149z m100 -47 c61 -44 85 -155 46 -213 -46 -69 -155 -48 -197 38 -63 132 43 255 151 175z"/>
    <path d="M1633 591 c-71 -18 -117 -71 -129 -148 -18 -123 125 -224 236 -165 37 20 57 51 24 37 -76 -31 -162 -7 -196 56 -32 61 -16 153 31 179 29 15 88 12 123 -6 30 -15 32 -15 45 2 12 16 11 21 -4 31 -9 7 -26 13 -37 13 -12 0 -30 2 -41 4 -11 3 -35 1 -52 -3z"/>
    <path d="M626 558 c-8 -40 -3 -45 23 -19 14 14 34 21 61 21 l40 0 0 -128 c0 -132 -5 -152 -42 -152 -10 0 -18 -4 -18 -10 0 -6 33 -10 80 -10 78 0 105 12 55 24 l-25 6 0 135 0 135 35 0 c21 0 41 -7 53 -20 18 -20 19 -20 29 15 l11 35 -148 0 -147 0 -7 -32z"/>
    <path d="M1900 581 c0 -5 9 -11 20 -14 19 -5 20 -14 20 -136 0 -120 -2 -132 -20 -143 -34 -21 -23 -28 45 -28 63 0 86 12 45 23 -19 5 -20 14 -20 142 0 128 1 137 20 142 41 11 18 23 -45 23 -36 0 -65 -4 -65 -9z"/>
    <path d="M2090 580 c0 -5 7 -10 15 -10 25 0 18 -12 -46 -76 l-62 -62 31 -39 c60 -76 129 -133 162 -133 34 0 40 15 11 25 -11 3 -52 41 -90 84 l-71 79 65 61 c36 33 75 61 86 61 11 0 17 5 14 10 -3 6 -31 10 -61 10 -30 0 -54 -4 -54 -10z"/>
    <path d="M2340 582 c0 -4 9 -13 20 -20 18 -11 20 -23 20 -137 0 -114 -2 -126 -20 -137 -34 -21 -23 -28 45 -28 63 0 86 12 45 23 -19 5 -20 14 -20 142 0 128 1 137 20 142 41 11 18 23 -45 23 -36 0 -65 -3 -65 -8z"/>
    <path d="M2580 581 c0 -5 9 -11 20 -14 19 -5 20 -14 20 -142 0 -128 -1 -137 -20 -142 -41 -11 -18 -23 45 -23 63 0 85 12 45 25 -19 6 -20 15 -20 142 0 126 1 135 20 140 41 11 18 23 -45 23 -36 0 -65 -4 -65 -9z"/>
  </g>
</svg>
